IKResults
version=1
nRows=7
nColumns=67
inDegrees=yes

Units are S.I. units (second, meters, Newtons, ...)
Angles are in degrees.

endheader
time	pelvis_tilt	pelvis_list	pelvis_rotation	pelvis_tx	pelvis_ty	pelvis_tz	hip_flexion_r	hip_adduction_r	hip_rotation_r	knee_angle_r	knee_rot_r	knee_adduc_r	ankle_angle_r	ankle_rot_r	ankle_add_r	subtalar_angle_r	mtp_angle_r	mtp_rot_r	mtp_add_r	hip_flexion_l	hip_adduction_l	hip_rotation_l	knee_angle_l	knee_rot_l	knee_adduc_l	ankle_angle_l	ankle_rot_l	ankle_add_l	subtalar_angle_l	mtp_angle_l	mtp_rot_l	mtp_add_l	lumbar_extension	lumbar_bending	lumbar_rotation	neck_flexion	neck_lateral_bending	neck_rotation	arm_flex_r	arm_add_r	arm_rot_r	elbow_flex_r	elbow_rot_r	elbow_add_r	pro_sup_r	wrist_flex_r	wrist_adduc_r	wrist_rot_r	wrist_dev_r	hand_finger_flex_r	hand_finger_adduc_r	hand_finger_rot_r	arm_flex_l	arm_add_l	arm_rot_l	elbow_flex_l	elbow_rot_l	elbow_add_l	pro_sup_l	wrist_flex_l	wrist_adduc_l	wrist_rot_l	wrist_dev_l	hand_finger_flex_l	hand_finger_adduc_l	hand_finger_rot_l
      0.00000000	     17.25395859	      8.82829604	     -1.46005370	     -2.39636468	      0.73931464	      0.88908471	      9.38465079	    -10.86479159	     10.35484401	     -3.42762166	     -5.00000000	     -0.40537051	      2.78490471	     -4.99989399	      1.59848468	     -3.26840844	      1.51123253	     -0.09026613	      0.69705340	    -35.34684766	     10.92963355	      5.60305390	     -6.92009009	      3.58098511	      0.81930953	     15.69787960	     -3.73439081	      1.47099970	     -1.04841508	      2.44410731	     -0.32359878	     -1.02522580	    -34.49374532	     -6.98563912	    -13.26582510	      0.00000000	      0.00000000	      0.00000000	      0.00000000	      0.00000000	      0.00000000	      0.00000000	      0.00000000	      0.00000000	     -0.00042092	      0.00000000	      0.00000000	      0.00000000	      0.00000000	      0.00000000	      0.00000000	      0.00000000	      0.00000000	      0.00000000	      0.00000000	      0.00000000	      0.00000000	      0.00000000	      0.00000000	      0.00000000	      0.00000000	      0.00000000	      0.00000000	      0.00000000	      0.00000000	      0.00000000
      0.00500000	     17.50467968	      8.73518069	     -1.12162314	     -2.38836875	      0.73834806	      0.88912020	      9.25942900	    -10.96053053	      9.01476100	     -3.56149025	     -5.00000000	     -0.15152654	      3.78050605	     -4.81844930	      3.22112415	     -2.56636250	      2.45528550	      0.00844559	      1.09644416	    -36.18073030	     10.61037880	      5.36185287	     -7.12925844	      5.00000000	      1.03674408	     15.96642283	     -5.00000000	      1.50104014	      0.50856837	      3.75257085	     -0.49022135	     -1.57181643	    -34.59385861	     -6.44094805	    -13.80490878	      0.00000000	      0.00000000	      0.00000000	      0.00000000	      0.00000000	      0.00000000	      0.00000000	      0.00000000	      0.00000000	     -0.00042092	      0.00000000	      0.00000000	      0.00000000	      0.00000000	      0.00000000	      0.00000000	      0.00000000	      0.00000000	      0.00000000	      0.00000000	      0.00000000	      0.00000000	      0.00000000	      0.00000000	      0.00000000	      0.00000000	      0.00000000	      0.00000000	      0.00000000	      0.00000000	      0.00000000
      0.01000000	     17.59797082	      8.52145559	     -0.90925030	     -2.38030322	      0.73723833	      0.88949672	      9.29892254	    -10.74255377	      8.16977545	     -3.68387577	     -5.00000000	     -0.11578311	      4.81180933	     -5.00000000	      4.18635956	     -2.68851973	      2.95297391	      0.04804392	      1.30914105	    -36.83835326	     10.12996342	      5.20890786	     -7.33957758	      5.00000000	      1.00583865	     15.80114511	     -4.99462987	      1.46776443	      1.12684555	      4.44315708	     -0.56502426	     -1.86201569	    -34.44980574	     -5.96622133	    -13.82190627	      0.00000000	      0.00000000	      0.00000000	      0.00000000	      0.00000000	      0.00000000	      0.00000000	      0.00000000	      0.00000000	     -0.00042092	      0.00000000	      0.00000000	      0.00000000	      0.00000000	      0.00000000	      0.00000000	      0.00000000	      0.00000000	      0.00000000	      0.00000000	      0.00000000	      0.00000000	      0.00000000	      0.00000000	      0.00000000	      0.00000000	      0.00000000	      0.00000000	      0.00000000	      0.00000000	      0.00000000
      0.01500000	     17.68315345	      8.42843663	     -0.88510918	     -2.37269060	      0.73606572	      0.89005861	      9.63491915	    -10.73450312	      7.83067871	     -4.22825783	     -5.00000000	      0.22710035	      4.91903927	     -5.00000000	      4.35538716	     -2.75124739	      3.03156966	      0.05316928	      1.34293660	    -37.40817578	      9.87530832	      5.22172882	     -7.61785481	      5.00000000	      0.95561965	     15.70211231	     -4.99718207	      1.41738357	      1.30875763	      4.56388418	     -0.57931555	     -1.91235694	    -34.39481073	     -5.75292911	    -13.68995033	      0.00000000	      0.00000000	      0.00000000	      0.00000000	      0.00000000	      0.00000000	      0.00000000	      0.00000000	      0.00000000	     -0.00042092	      0.00000000	      0.00000000	      0.00000000	      0.00000000	      0.00000000	      0.00000000	      0.00000000	      0.00000000	      0.00000000	      0.00000000	      0.00000000	      0.00000000	      0.00000000	      0.00000000	      0.00000000	      0.00000000	      0.00000000	      0.00000000	      0.00000000	      0.00000000	      0.00000000
      0.02000000	     17.76988977	      8.25049684	     -0.84961979	     -2.36502268	      0.73494030	      0.89062066	      9.97469830	    -10.58223175	      7.36438887	     -4.98210809	     -5.00000000	      0.47947854	      5.29290034	     -5.00000000	      4.60154797	     -2.86644375	      3.12069903	      0.05622280	      1.38187202	    -37.99032507	      9.54637591	      5.22096900	     -7.87717129	      5.00000000	      0.92137307	     15.52418525	     -4.99863857	      1.31075377	      1.56899068	      4.69901701	     -0.59590037	     -1.96854226	    -34.29316852	     -5.41799526	    -13.57013035	      0.00000000	      0.00000000	      0.00000000	      0.00000000	      0.00000000	      0.00000000	      0.00000000	      0.00000000	      0.00000000	     -0.00042092	      0.00000000	      0.00000000	      0.00000000	      0.00000000	      0.00000000	      0.00000000	      0.00000000	      0.00000000	      0.00000000	      0.00000000	      0.00000000	      0.00000000	      0.00000000	      0.00000000	      0.00000000	      0.00000000	      0.00000000	      0.00000000	      0.00000000	      0.00000000	      0.00000000
      0.02500000	     17.91707843	      7.86073460	     -0.70641910	     -2.35688247	      0.73395987	      0.89129478	     10.05744096	    -10.02632452	      6.51574930	     -5.74212355	     -5.00000000	      0.36213016	      6.48939601	     -4.99971576	      5.00000000	     -2.86641936	      3.44888320	      0.09665852	      1.51854863	    -38.72240742	      8.86647596	      4.76637949	     -8.00963316	      5.00000000	      0.82641473	     15.28703695	     -4.88329662	      0.86196176	      2.28785790	      5.25725595	     -0.65595829	     -2.00000000	    -34.12129115	     -4.80580658	    -13.35155398	      0.00000000	      0.00000000	      0.00000000	      0.00000000	      0.00000000	      0.00000000	      0.00000000	      0.00000000	      0.00000000	     -0.00042092	      0.00000000	      0.00000000	      0.00000000	      0.00000000	      0.00000000	      0.00000000	      0.00000000	      0.00000000	      0.00000000	      0.00000000	      0.00000000	      0.00000000	      0.00000000	      0.00000000	      0.00000000	      0.00000000	      0.00000000	      0.00000000	      0.00000000	      0.00000000	      0.00000000
      0.03000000	     18.05187888	      7.68034915	     -0.73386743	     -2.34922497	      0.73293079	      0.89195562	     10.39399869	     -9.84456421	      6.28917205	     -6.85097827	     -5.00000000	      0.62474169	      6.34430043	     -5.00000000	      5.00000000	     -2.82215567	      3.50133037	      0.10580141	      1.53976140	    -39.31365520	      8.62764261	      4.82759347	     -8.32619028	      5.00000000	      0.91073336	     15.12051707	     -4.97378800	      0.77388751	      2.50413534	      5.36734123	     -0.67037791	     -2.00000000	    -34.05179433	     -4.49623806	    -13.31322743	      0.00000000	      0.00000000	      0.00000000	      0.00000000	      0.00000000	      0.00000000	      0.00000000	      0.00000000	      0.00000000	     -0.00042092	      0.00000000	      0.00000000	      0.00000000	      0.00000000	      0.00000000	      0.00000000	      0.00000000	      0.00000000	      0.00000000	      0.00000000	      0.00000000	      0.00000000	      0.00000000	      0.00000000	      0.00000000	      0.00000000	      0.00000000	      0.00000000	      0.00000000	      0.00000000	      0.00000000
